# xmcd
#
# Track frame offsets:
# 150
# 17415
# 30112
# 48510
# 66938
# 83057
# 100387
# 121359
# 137183
# 151024
#
# Disc length: 2247 seconds
#
#
# Revision: 0
# Processed by: cddbd v1.5.2PL0 Copyright (c) Steve Scherf et al.
# Submitted via: FreeRIP 2.30 
#
DISCID=7308c50a
DTITLE=Joe Cocker - Hymn 4 my soul
DYEAR=2007
DGENRE=Blues
TTITLE0=You haven´t done nothin´
TTITLE1=One World (peace)
TTITLE2=Love is for me
TTITLE3=Don´t give up on me
TTITLE4=Long as i can see the light
TTITLE5=Beware of darkness
TTITLE6=Just pass it on
TTITLE7=Rivers invitation
TTITLE8=Ring them bells
TTITLE9=Hymn 4 my soul
EXTD=
EXTT0=
EXTT1=
EXTT2=
EXTT3=
EXTT4=
EXTT5=
EXTT6=
EXTT7=
EXTT8=
EXTT9=
PLAYORDER=
